<svg width="79" height="26" viewBox="0 0 79 26" fill="none" xmlns="http://www.w3.org/2000/svg">
<path d="M8.008 25.384C6.99467 25.384 6.01867 25.2667 5.08 25.032C4.14133 24.7973 3.29867 24.4507 2.552 23.992C1.816 23.5333 1.22933 22.9627 0.792 22.28C0.365333 21.5867 0.152 20.7813 0.152 19.864C0.152 19.8213 0.152 19.7733 0.152 19.72C0.152 19.656 0.152 19.608 0.152 19.576H5.08C5.08 19.608 5.08 19.6453 5.08 19.688C5.08 19.72 5.08 19.7573 5.08 19.8C5.08 20.4187 5.352 20.872 5.896 21.16C6.45067 21.448 7.19733 21.592 8.136 21.592C8.62667 21.592 9.096 21.544 9.544 21.448C10.0027 21.3413 10.376 21.176 10.664 20.952C10.9627 20.7173 11.112 20.424 11.112 20.072C11.112 19.5067 10.7973 19.1067 10.168 18.872C9.54933 18.6373 8.552 18.4027 7.176 18.168C6.39733 18.04 5.608 17.8587 4.808 17.624C4.008 17.3893 3.272 17.08 2.6 16.696C1.928 16.3013 1.38933 15.8053 0.984 15.208C0.578667 14.6 0.376 13.864 0.376 13C0.376 11.848 0.722667 10.8773 1.416 10.088C2.12 9.29867 3.05333 8.70133 4.216 8.296C5.37867 7.89067 6.65867 7.688 8.056 7.688C9.38933 7.688 10.632 7.912 11.784 8.36C12.936 8.79733 13.8693 9.432 14.584 10.264C15.2987 11.0853 15.656 12.0773 15.656 13.24C15.656 13.2613 15.656 13.2933 15.656 13.336C15.656 13.3787 15.656 13.4213 15.656 13.464H10.776C10.776 13.4213 10.776 13.384 10.776 13.352C10.776 13.32 10.776 13.2933 10.776 13.272C10.776 12.8453 10.6373 12.4987 10.36 12.232C10.0933 11.9653 9.752 11.768 9.336 11.64C8.92 11.5013 8.488 11.432 8.04 11.432C7.63467 11.432 7.21333 11.48 6.776 11.576C6.34933 11.6613 5.98667 11.8107 5.688 12.024C5.38933 12.2267 5.24 12.5147 5.24 12.888C5.24 13.2507 5.4 13.5493 5.72 13.784C6.04 14.008 6.488 14.1947 7.064 14.344C7.64 14.4827 8.30667 14.616 9.064 14.744C9.77867 14.8613 10.5307 15.0267 11.32 15.24C12.12 15.4427 12.8667 15.736 13.56 16.12C14.264 16.4933 14.8293 16.9893 15.256 17.608C15.6933 18.216 15.912 18.9893 15.912 19.928C15.912 20.8987 15.688 21.7307 15.24 22.424C14.792 23.1173 14.184 23.6827 13.416 24.12C12.6587 24.5467 11.8107 24.8613 10.872 25.064C9.944 25.2773 8.98933 25.384 8.008 25.384ZM24.5861 25.32C23.3807 25.32 22.3887 25.128 21.6101 24.744C20.8314 24.3493 20.2181 23.8213 19.7701 23.16C19.3221 22.4987 19.0074 21.7627 18.8261 20.952C18.6447 20.1413 18.5541 19.32 18.5541 18.488C18.5541 18.104 18.5541 17.6987 18.5541 17.272C18.5541 16.8453 18.5541 16.408 18.5541 15.96V8.008H23.5141V15.176C23.5141 15.5387 23.5141 15.8907 23.5141 16.232C23.5141 16.5733 23.5141 16.888 23.5141 17.176C23.5141 17.8907 23.5941 18.5467 23.7541 19.144C23.9141 19.7413 24.2074 20.2213 24.6341 20.584C25.0714 20.9467 25.6901 21.128 26.4901 21.128C27.2687 21.128 27.9301 20.9093 28.4741 20.472C29.0181 20.024 29.4341 19.4533 29.7221 18.76C30.0101 18.0667 30.1541 17.352 30.1541 16.616L31.5461 17.752C31.5461 18.8187 31.3807 19.8107 31.0501 20.728C30.7301 21.6453 30.2714 22.4507 29.6741 23.144C29.0767 23.8267 28.3461 24.36 27.4821 24.744C26.6287 25.128 25.6634 25.32 24.5861 25.32ZM30.1541 25V8.008H35.1141V25H30.1541ZM38.1989 25V8.008H43.1109V25H38.1989ZM40.6469 5.24C39.8789 5.24 39.2069 5.03733 38.6309 4.632C38.0655 4.22667 37.7829 3.656 37.7829 2.92C37.7829 2.17333 38.0655 1.59733 38.6309 1.192C39.2069 0.786666 39.8789 0.584 40.6469 0.584C41.4255 0.584 42.0975 0.786666 42.6629 1.192C43.2389 1.59733 43.5269 2.17333 43.5269 2.92C43.5269 3.66667 43.2389 4.24267 42.6629 4.648C42.0975 5.04267 41.4255 5.24 40.6469 5.24ZM54.6734 25.352C54.0228 25.352 53.3508 25.2933 52.6574 25.176C51.9748 25.0693 51.3348 24.8507 50.7374 24.52C50.1508 24.1787 49.6761 23.6827 49.3134 23.032C48.9508 22.3813 48.7694 21.5227 48.7694 20.456C48.7694 20.2213 48.7694 19.9813 48.7694 19.736C48.7694 19.4907 48.7694 19.2453 48.7694 19V11.848H44.8494V8.008H45.9534C46.5934 8.008 47.1001 7.98133 47.4734 7.928C47.8574 7.87467 48.1401 7.74133 48.3214 7.528C48.5134 7.304 48.6361 6.95733 48.6894 6.488C48.7428 6.01867 48.7694 5.37333 48.7694 4.552V2.408H53.7454V8.008H58.6894V11.848H53.7454V17.96C53.7454 18.152 53.7454 18.3387 53.7454 18.52C53.7454 18.7013 53.7454 18.8773 53.7454 19.048C53.7454 19.784 53.8308 20.3813 54.0014 20.84C54.1828 21.2987 54.6254 21.528 55.3294 21.528C55.6814 21.528 56.0121 21.496 56.3214 21.432C56.6414 21.368 56.8814 21.304 57.0414 21.24V24.968C56.8174 25.064 56.5028 25.1493 56.0974 25.224C55.6921 25.3093 55.2174 25.352 54.6734 25.352ZM62.7497 17.992V14.712H74.0137L73.5337 15.544C73.5337 15.4587 73.5337 15.3787 73.5337 15.304C73.5337 15.2187 73.5337 15.1387 73.5337 15.064C73.5337 14.456 73.3897 13.8747 73.1017 13.32C72.8137 12.7547 72.3657 12.296 71.7577 11.944C71.1604 11.5813 70.3924 11.4 69.4537 11.4C68.5151 11.4 67.7044 11.6027 67.0217 12.008C66.3497 12.4027 65.8324 12.9733 65.4697 13.72C65.1177 14.4667 64.9417 15.368 64.9417 16.424C64.9417 17.512 65.1124 18.4453 65.4537 19.224C65.8057 19.992 66.3231 20.584 67.0057 21C67.6991 21.416 68.5577 21.624 69.5817 21.624C70.2431 21.624 70.8137 21.5653 71.2937 21.448C71.7737 21.32 72.1631 21.16 72.4617 20.968C72.7711 20.776 73.0057 20.5627 73.1657 20.328C73.3257 20.0933 73.4217 19.864 73.4537 19.64H78.3497C78.2857 20.3547 78.0404 21.0587 77.6137 21.752C77.1871 22.4347 76.5951 23.0533 75.8377 23.608C75.0804 24.152 74.1577 24.584 73.0697 24.904C71.9924 25.224 70.7604 25.384 69.3737 25.384C67.4964 25.384 65.8591 25.0107 64.4617 24.264C63.0644 23.5067 61.9817 22.4667 61.2137 21.144C60.4457 19.8107 60.0617 18.2747 60.0617 16.536C60.0617 14.776 60.4511 13.2347 61.2297 11.912C62.0191 10.5787 63.1124 9.544 64.5097 8.808C65.9177 8.06133 67.5444 7.688 69.3897 7.688C71.2777 7.688 72.9097 8.06667 74.2857 8.824C75.6617 9.57067 76.7231 10.6213 77.4697 11.976C78.2164 13.32 78.5897 14.888 78.5897 16.68C78.5897 16.9467 78.5844 17.2027 78.5737 17.448C78.5631 17.6933 78.5471 17.8747 78.5257 17.992H62.7497Z" fill="#172339"/>
</svg>
